<svg height="393pt" viewBox="-7 0 393 393.82391" width="393pt" xmlns="http://www.w3.org/2000/svg"><path d="m199.949219 19.285156s31.898437-31.898437 70.171875 6.378906c0 0 25.515625-6.378906 38.277344 25.515626 0 0 57.410156 0 51.03125 89.308593 0 0 38.277343 57.410157-19.136719 95.6875 0 0 12.761719 51.035157-31.894531 70.171875 0 0 12.757812 38.273438-25.515626 44.652344 0 0-44.65625 76.554688-82.929687 6.382812h-.261719c-38.277344 70.171876-82.929687-6.382812-82.929687-6.382812-38.277344-6.378906-25.519531-44.652344-25.519531-44.652344-44.652344-19.136718-31.894532-70.171875-31.894532-70.171875-57.410156-38.277343-19.136718-95.6875-19.136718-95.6875-6.378907-89.308593 51.03125-89.308593 51.03125-89.308593 12.761718-31.894532 38.277343-25.515626 38.277343-25.515626 38.273438-38.277343 70.171875-6.378906 70.171875-6.378906zm0 0" fill="#0e65e5"/><path d="m236.339844 393.824219c-.164063 0-.320313 0-.484375-.007813-13.378907-.183594-25.46875-8.097656-36.035157-23.539062-10.566406 15.441406-22.65625 23.355468-36.035156 23.539062-.160156.007813-.320312.007813-.484375.007813-24.960937 0-44.957031-27.734375-50.757812-36.6875-11.492188-2.53125-19.878907-8.078125-24.957031-16.511719-6.453126-10.722656-5.582032-23.269531-4.257813-30.496094-31.753906-16.832031-34.941406-51.050781-31.574219-70.929687-29.058594-21.269531-32.601562-47.472657-30.277344-66.0625 2.050782-16.40625 8.902344-29.464844 11.78125-34.367188-2.085937-34.125 4.679688-59.824219 20.113282-76.40625 12.035156-12.917969 26.089844-16.574219 33.230468-17.605469 10.878907-23 29.332032-27.425781 40.636719-26.378906 32.710938-30.496094 61.605469-15.609375 72.585938-7.742187 10.980469-7.859375 39.886719-22.765625 72.582031 7.742187 11.242188-1.046875 29.757812 3.378906 40.640625 26.378906 7.136719 1.03125 21.191406 4.6875 33.226563 17.605469 15.441406 16.585938 22.203124 42.300781 20.113281 76.445313 6.359375 11.0625 32.351562 63.234375-18.496094 100.386718 3.367187 19.878907.175781 54.101563-31.570313 70.933594 1.316407 7.226563 2.191407 19.773438-4.265624 30.492188-5.078126 8.433594-13.460938 13.980468-24.953126 16.515625-5.804687 8.953125-25.800781 36.679687-50.761718 36.6875zm-36.648438-43.265625c2.496094 0 5.054688 1.367187 6.253906 3.558594 9.339844 17.121093 19.460938 25.886718 30.085938 26.054687h.304688c17.664062 0 35.3125-23.5 40.652343-32.613281 1.023438-1.746094 2.773438-2.953125 4.769531-3.285156 8.941407-1.496094 15.1875-5.066407 18.566407-10.632813 6.292969-10.375 1.636719-25 1.589843-25.148437-1.09375-3.359376.546876-7.019532 3.792969-8.410157 38.664063-16.574219 28.417969-60.402343 27.960938-62.261719-.683594-2.792968.453125-5.726562 2.839843-7.320312 51.144532-34.09375 18.652344-84.105469 17.246094-86.21875-.839844-1.261719-1.238281-2.761719-1.128906-4.273438 2.234375-31.292968-3.265625-54.289062-16.34375-68.335937-12.582031-13.511719-27.730469-13.664063-27.882812-13.664063-2.789063 0-5.296876-1.699218-6.335938-4.296874-10.105469-25.246094-28.3125-21.878907-30.347656-21.40625-2.292969.507812-4.757813-.144532-6.417969-1.8125-33.074219-33.074219-59.40625-7.480469-60.515625-6.378907-1.28125 1.28125-3.019531 2-4.828125 2h-.257813c-1.8125 0-3.546874-.71875-4.828124-2-2.777344-2.71875-28.265626-25.867187-60.519532 6.378907-1.695312 1.695312-4.152344 2.394531-6.484375 1.792968-1.96875-.4375-20.179687-3.816406-30.277343 21.429688-1.035157 2.59375-3.546876 4.292968-6.339844 4.292968-.59375.007813-15.640625.355469-28.078125 13.886719-12.9375 14.074219-18.367188 36.988281-16.144531 68.113281.105468 1.515626-.289063 3.015626-1.128907 4.273438-1.390625 2.105469-33.683593 52.273438 17.242188 86.222656 2.402343 1.601563 3.539062 4.539063 2.839843 7.332032-.457031 1.847656-10.703124 45.675781 27.960938 62.246093 3.265625 1.402344 4.910156 5.070313 3.789062 8.433594-.039062.125-4.699218 14.753906 1.59375 25.128906 3.375 5.566407 9.625 9.136719 18.570313 10.632813 1.996094.332031 3.746094 1.539062 4.769531 3.285156 5.335938 9.113281 22.992188 32.613281 40.648438 32.613281h.304687c10.625-.167969 20.75-8.933593 30.089844-26.054687 1.191406-2.195313 3.492187-3.5625 5.988281-3.5625zm.261719-331.273438h.066406zm0 0" fill="#0e65e5"/><path d="m179.46875 19.285156s31.898438-31.898437 70.171875 6.378906c0 0 25.515625-6.378906 38.277344 25.515626 0 0 57.410156 0 51.03125 89.308593 0 0 38.277343 57.410157-19.136719 95.6875 0 0 12.761719 51.035157-31.894531 70.171875 0 0 12.757812 38.273438-25.515625 44.652344 0 0-44.65625 76.554688-82.929688 6.382812h-.261718c-38.277344 70.171876-82.929688-6.382812-82.929688-6.382812-38.277344-6.378906-25.515625-44.652344-25.515625-44.652344-44.65625-19.136718-31.898437-70.171875-31.898437-70.171875-57.410157-38.277343-19.136719-95.6875-19.136719-95.6875-6.378907-89.308593 51.035156-89.308593 51.035156-89.308593 12.757813-31.894532 38.273437-25.515626 38.273437-25.515626 38.277344-38.277343 70.171876-6.378906 70.171876-6.378906zm0 0" fill="#d7e9ff"/><path d="m215.859375 393.824219c-.160156 0-.320313 0-.484375-.007813-13.378906-.183594-25.46875-8.097656-36.03125-23.539062-10.570312 15.441406-22.660156 23.355468-36.039062 23.539062-.160157.007813-.320313.007813-.480469.007813-24.964844 0-44.957031-27.734375-50.761719-36.6875-11.492188-2.53125-19.878906-8.078125-24.957031-16.511719-6.453125-10.722656-5.578125-23.269531-4.257813-30.496094-31.753906-16.832031-34.941406-51.050781-31.574218-70.929687-29.058594-21.269531-32.601563-47.472657-30.277344-66.0625 2.050781-16.40625 8.90625-29.464844 11.78125-34.367188-2.085938-34.125 4.679687-59.824219 20.117187-76.40625 12.03125-12.917969 26.089844-16.574219 33.226563-17.605469 10.878906-23 29.332031-27.425781 40.636718-26.378906 32.707032-30.496094 61.605469-15.609375 72.585938-7.742187 10.988281-7.859375 39.890625-22.765625 72.582031 7.742187 11.242188-1.046875 29.757813 3.378906 40.640625 26.378906 7.136719 1.03125 21.191406 4.6875 33.226563 17.605469 15.441406 16.585938 22.203125 42.300781 20.113281 76.445313 6.359375 11.0625 32.351562 63.234375-18.492188 100.386718 3.367188 19.878907.171876 54.101563-31.574218 70.933594 1.320312 7.226563 2.191406 19.773438-4.265625 30.492188-5.074219 8.433594-13.460938 13.980468-24.953125 16.515625-5.804688 8.953125-25.800782 36.679687-50.761719 36.6875zm-36.648437-43.265625c2.496093 0 5.054687 1.367187 6.253906 3.558594 9.339844 17.121093 19.460937 25.886718 30.085937 26.054687h.308594c17.660156 0 35.308594-23.5 40.648437-32.613281 1.023438-1.746094 2.773438-2.953125 4.769532-3.285156 8.941406-1.496094 15.1875-5.066407 18.566406-10.632813 6.292969-10.375 1.636719-25 1.589844-25.148437-1.09375-3.359376.546875-7.019532 3.796875-8.410157 38.660156-16.574219 28.414062-60.402343 27.957031-62.261719-.679688-2.792968.453125-5.726562 2.839844-7.320312 51.144531-34.09375 18.652344-84.105469 17.246094-86.21875-.839844-1.261719-1.238282-2.761719-1.128907-4.273438 2.234375-31.292968-3.265625-54.289062-16.34375-68.335937-12.582031-13.511719-27.730469-13.664063-27.878906-13.664063-2.792969 0-5.300781-1.699218-6.339844-4.296874-10.101562-25.246094-28.320312-21.878907-30.347656-21.40625-2.300781.507812-4.757813-.144532-6.417969-1.8125-33.074218-33.074219-59.40625-7.480469-60.515625-6.378907-1.28125 1.28125-3.019531 2-4.828125 2h-.257812c-1.8125 0-3.546875-.71875-4.828125-2-2.78125-2.71875-28.269531-25.867187-60.519531 6.378907-1.699219 1.695312-4.152344 2.394531-6.484376 1.792968-1.964843-.4375-20.183593-3.816406-30.273437 21.429688-1.039063 2.59375-3.550781 4.292968-6.34375 4.292968-.59375.007813-15.640625.355469-28.078125 13.886719-12.9375 14.074219-18.367188 36.988281-16.144531 68.113281.105469 1.515626-.289063 3.015626-1.128907 4.273438-1.390624 2.105469-33.683593 52.273438 17.246094 86.222656 2.398438 1.601563 3.535156 4.539063 2.835938 7.332032-.457032 1.847656-10.703125 45.675781 27.960937 62.246093 3.265625 1.402344 4.910157 5.070313 3.789063 8.433594-.039063.125-4.695313 14.753906 1.59375 25.128906 3.378906 5.566407 9.625 9.136719 18.570312 10.632813 1.996094.332031 3.746094 1.539062 4.769532 3.285156 5.335937 9.113281 22.992187 32.613281 40.648437 32.613281h.304687c10.625-.167969 20.75-8.933593 30.089844-26.054687 1.191406-2.195313 3.492188-3.5625 5.988282-3.5625zm.261718-331.273438h.066406zm0 0" fill="#0e65e5"/><path d="m109.039062 95.835938s0-31.898438-38.273437-44.65625" fill="#d7e9ff"/><path d="m109.039062 102.65625c-3.757812 0-6.808593-3.03125-6.828124-6.785156-.015626-1.195313-.8125-27.285156-33.605469-38.222656-3.578125-1.183594-5.511719-5.050782-4.316407-8.632813 1.1875-3.574219 5.046876-5.519531 8.636719-4.3125 42.453125 14.152344 42.941407 49.625 42.941407 51.125-.003907 3.777344-3.058594 6.828125-6.828126 6.828125zm0 0" fill="#0e65e5"/><path d="m102.660156 217.039062s-19.523437 52.875-63.792968 19.136719" fill="#d7e9ff"/><path d="m66.667969 254.273438c-10.175781 0-20.875-4.234376-31.9375-12.667969-3-2.28125-3.578125-6.566407-1.292969-9.566407 2.28125-2.992187 6.574219-3.585937 9.566406-1.289062 11.125 8.476562 21.179688 11.523438 29.878906 8.988281 15.492188-4.464843 23.300782-24.871093 23.375-25.078125 1.328126-3.527344 5.25-5.304687 8.777344-4.015625 3.53125 1.316407 5.332032 5.226563 4.027344 8.761719-.40625 1.101562-10.195312 27-32.316406 33.425781-3.296875.960938-6.65625 1.441407-10.078125 1.441407zm0 0" fill="#0e65e5"/><path d="m115.417969 331.863281s-6.378907-25.515625 19.136719-51.03125" fill="#d7e9ff"/><path d="m115.394531 338.664062c-3.054687 0-5.828125-2.046874-6.597656-5.148437-.296875-1.191406-7-29.578125 20.933594-57.511719 2.664062-2.664062 6.984375-2.664062 9.652343 0 2.664063 2.667969 2.664063 6.988282 0 9.652344-22.226562 22.234375-17.539062 43.699219-17.328124 44.601562.851562 3.652344-1.394532 7.332032-5.039063 8.210938-.542969.136719-1.089844.195312-1.621094.195312zm0 0" fill="#0e65e5"/><path d="m45.246094 146.867188s25.519531 31.894531 57.414062 19.136718c31.894532-12.757812 38.273438-31.894531 51.035156-25.515625" fill="#d7e9ff"/><path d="m87.164062 175.90625c-27.058593 0-46.277343-23.5625-47.246093-24.769531-2.355469-2.945313-1.882813-7.238281 1.066406-9.597657 2.929687-2.355468 7.21875-1.882812 9.582031 1.050782.925782 1.148437 22.820313 27.753906 49.558594 17.074218 13.875-5.546874 22.484375-12.292968 29.402344-17.707031 8.492187-6.648437 16.515625-12.925781 27.21875-7.574219 3.375 1.6875 4.742187 5.789063 3.054687 9.160157-1.683593 3.367187-5.785156 4.726562-9.160156 3.054687-2.570313-1.300781-4.351563-.429687-12.695313 6.105469-7.199218 5.640625-17.0625 13.359375-32.746093 19.640625-6.292969 2.515625-12.339844 3.5625-18.035157 3.5625zm0 0" fill="#0e65e5"/><path d="m249.382812 95.835938s0-31.898438 38.273438-44.65625" fill="#d7e9ff"/><path d="m249.378906 102.65625c-3.769531 0-6.824218-3.050781-6.824218-6.824219 0-1.5.484374-36.972656 42.941406-51.128906 3.597656-1.203125 7.445312.742187 8.636718 4.3125 1.195313 3.582031-.738281 7.449219-4.316406 8.636719-33.226562 11.078125-33.609375 37.914062-33.609375 38.179687 0 3.773438-3.058593 6.824219-6.828125 6.824219zm0 0" fill="#0e65e5"/><path d="m255.761719 217.039062s19.523437 52.875 63.792969 19.136719" fill="#d7e9ff"/><path d="m291.75 254.273438c-3.417969 0-6.78125-.480469-10.078125-1.441407-22.117187-6.429687-31.90625-32.328125-32.3125-33.429687-1.308594-3.539063.503906-7.464844 4.039063-8.773438 3.527343-1.292968 7.449218.5 8.761718 4.027344.121094.320312 7.925782 20.625 23.375 25.078125 8.703125 2.527344 18.757813-.519531 29.882813-8.984375 2.996093-2.300781 7.285156-1.707031 9.566406 1.285156 2.28125 3 1.707031 7.289063-1.292969 9.566406-11.058594 8.4375-21.757812 12.671876-31.941406 12.671876zm0 0" fill="#0e65e5"/><path d="m223.863281 293.589844s6.378907-25.515625-19.136719-51.035156" fill="#d7e9ff"/><path d="m223.871094 300.417969c-.550782 0-1.105469-.066407-1.664063-.207031-3.644531-.90625-5.863281-4.585938-4.976562-8.230469.234375-1.007813 4.839843-22.429688-17.328125-44.59375-2.667969-2.667969-2.667969-6.988281 0-9.65625 2.664062-2.664063 6.984375-2.664063 9.652344 0 27.929687 27.929687 21.226562 56.320312 20.933593 57.515625-.777343 3.105468-3.5625 5.171875-6.617187 5.171875zm0 0" fill="#0e65e5"/><path d="m309.058594 176.070312s-38.367188 14.015626-59.003906-13.449218c-20.636719-27.464844-16.152344-47.128906-30.371094-48.304688" fill="#d7e9ff"/><path d="m286.769531 186.53125c-13.683593 0-30.277343-3.980469-42.171875-19.808594-10.152344-13.503906-14.574218-25.230468-17.800781-33.792968-3.738281-9.917969-4.816406-11.570313-7.671875-11.804688-3.761719-.316406-6.554688-3.613281-6.242188-7.367188.308594-3.753906 3.609376-6.503906 7.359376-6.246093 11.933593.988281 15.527343 10.511719 19.332031 20.605469 3.097656 8.21875 6.960937 18.453124 15.9375 30.40625 17.289062 23 49.835937 11.625 51.21875 11.128906 3.535156-1.273438 7.453125.558594 8.738281 4.089844 1.28125 3.542968-.535156 7.449218-4.070312 8.742187-.863282.3125-11.382813 4.046875-24.628907 4.046875zm0 0" fill="#0e65e5"/><path d="m179.210938 364.210938c-3.769532 0-6.828126-3.050782-6.828126-6.824219v-338.101563c0-3.773437 3.058594-6.828125 6.828126-6.828125 3.769531 0 6.828124 3.054688 6.828124 6.828125v338.097656c0 3.777344-3.058593 6.828126-6.828124 6.828126zm0 0" fill="#0e65e5"/><path d="m222.296875 71.375s.660156 45.101562-22.375 74.308594" fill="#d7e9ff"/><path d="m199.921875 152.511719c-1.480469 0-2.96875-.480469-4.226563-1.464844-2.957031-2.335937-3.46875-6.628906-1.132812-9.585937 21.285156-26.996094 20.914062-69.5625 20.90625-69.988282-.050781-3.773437 2.957031-6.875 6.726562-6.929687 3.824219-.078125 6.871094 2.960937 6.929688 6.726562.027344 1.941407.410156 47.886719-23.839844 78.640625-1.347656 1.707032-3.347656 2.601563-5.363281 2.601563zm0 0" fill="#0e65e5"/><path d="m109.039062 166.007812s-25.515624 51.03125 12.757813 76.550782" fill="#d7e9ff"/><path d="m121.792969 249.386719c-1.300781 0-2.617188-.375-3.78125-1.148438-34.242188-22.832031-24.835938-65.773437-15.082031-85.289062 1.691406-3.371094 5.78125-4.730469 9.148437-3.050781 3.371094 1.679687 4.742187 5.773437 3.070313 9.144531-.929688 1.875-22.308594 46 10.433593 67.835937 3.136719 2.09375 3.984375 6.332032 1.894531 9.464844-1.316406 1.976562-3.476562 3.042969-5.683593 3.042969zm0 0" fill="#0e65e5"/><path d="m147.316406 223.417969s19.136719-12.757813 6.378906-31.894531" fill="#d7e9ff"/><path d="m147.320312 230.246094c-2.207031 0-4.371093-1.066406-5.683593-3.039063-2.085938-3.128906-1.25-7.347656 1.859375-9.449219 2.242187-1.539062 12.933594-9.824218 4.519531-22.445312-2.09375-3.132812-1.246094-7.371094 1.890625-9.464844 3.132812-2.089844 7.375-1.246094 9.46875 1.890625 12.136719 18.207031 1.703125 34.707031-8.273438 41.359375-1.164062.773438-2.480468 1.148438-3.78125 1.148438zm0 0" fill="#0e65e5"/><path d="m204.726562 325.484375s12.757813-38.273437 38.277344-38.273437" fill="#d7e9ff"/><path d="m204.726562 332.308594c-.714843 0-1.445312-.109375-2.160156-.351563-3.578125-1.1875-5.511718-5.054687-4.316406-8.632812.582031-1.753907 14.660156-42.941407 44.75-42.941407 3.769531 0 6.828125 3.054688 6.828125 6.828126 0 3.773437-3.058594 6.824218-6.828125 6.824218-20.035156 0-31.683594 33.269532-31.796875 33.609375-.953125 2.859375-3.617187 4.664063-6.476563 4.664063zm0 0" fill="#0e65e5"/><path d="m109.039062 25.664062s19.136719 25.515626 25.515626 31.894532" fill="#d7e9ff"/><path d="m134.554688 64.382812c-1.746094 0-3.496094-.664062-4.832032-2-6.640625-6.644531-25.351562-31.566406-26.144531-32.625-2.261719-3.015624-1.652344-7.292968 1.363281-9.554687 3.019532-2.253906 7.304688-1.644531 9.558594 1.359375 5.242188 6.996094 19.9375 26.214844 24.886719 31.167969 2.664062 2.667969 2.664062 6.988281-.003907 9.652343-1.335937 1.335938-3.082031 2-4.828124 2zm0 0" fill="#0e65e5"/><path d="m246.621094 22.792969-16.378906 22.007812" fill="#d7e9ff"/><path d="m230.238281 51.625c-1.417969 0-2.84375-.441406-4.070312-1.351562-3.023438-2.246094-3.652344-6.527344-1.398438-9.546876l16.375-22.007812c2.257813-3.023438 6.523438-3.65625 9.554688-1.402344 3.023437 2.246094 3.652343 6.527344 1.398437 9.546875l-16.375 22.007813c-1.34375 1.800781-3.398437 2.753906-5.484375 2.753906zm0 0" fill="#0e65e5"/><g fill="#fff"><path d="m322.558594 109.226562c-3.769532 0-6.824219-3.054687-6.824219-6.828124v-27.304688c0-3.773438 3.054687-6.828125 6.824219-6.828125 3.773437 0 6.828125 3.054687 6.828125 6.828125v27.304688c0 3.773437-3.054688 6.828124-6.828125 6.828124zm0 0"/><path d="m336.214844 95.570312h-27.308594c-3.769531 0-6.824219-3.050781-6.824219-6.824218 0-3.773438 3.054688-6.828125 6.824219-6.828125h27.308594c3.769531 0 6.824218 3.054687 6.824218 6.828125 0 3.773437-3.054687 6.824218-6.824218 6.824218zm0 0"/><path d="m90.929688 152.757812c-3.511719 0-6.972657-.453124-10.367188-1.355468-20.074219-5.332032-29.9375-24.652344-30.347656-25.472656-1.683594-3.375-.320313-7.472657 3.054687-9.160157 3.375-1.671875 7.457031-.320312 9.144531 3.035157.078126.144531 7.652344 14.746093 21.746094 18.425781 8.9375 2.339843 18.957032-.140625 29.816406-7.378907 3.136719-2.089843 7.367188-1.242187 9.464844 1.890626 2.089844 3.140624 1.246094 7.375-1.890625 9.46875-10.535156 7.019531-20.789062 10.546874-30.621093 10.546874zm0 0"/><path d="m240.636719 273.066406c-2.96875 0-5.703125-1.957031-6.558594-4.953125-11.6875-40.902343-27.699219-42.828125-27.863281-42.839843-3.636719-.335938-6.527344-3.476563-6.363282-7.121094.167969-3.648438 3.003907-6.527344 6.652344-6.527344 2.625 0 26.054688 1.480469 40.699219 52.738281 1.035156 3.621094-1.0625 7.402344-4.6875 8.441407-.625.171874-1.257813.261718-1.878906.261718zm0 0"/></g></svg>