<?xml version="1.0"?>
<svg xmlns="http://www.w3.org/2000/svg" xmlns:xlink="http://www.w3.org/1999/xlink" width="512" height="512" viewBox="0 0 128 128"><defs><linearGradient id="a" x1="115.941" y1="117.224" x2="12.059" y2="13.342" gradientUnits="userSpaceOnUse"><stop offset="0" stop-color="#593db6"/><stop offset="1" stop-color="#d86d6f"/></linearGradient></defs><path d="M113.192,95.919a16.345,16.345,0,0,1,1.212,6.189v13.449a7.759,7.759,0,0,1-7.75,7.75H21.346a7.759,7.759,0,0,1-7.75-7.75V102.108a16.345,16.345,0,0,1,1.212-6.189L29.53,59.755a16.355,16.355,0,0,1,15.2-10.226h.812V42.521a1.75,1.75,0,0,1,1.75-1.75h11a1.75,1.75,0,0,1,1.75,1.75v7.008h7.906V42.521a1.75,1.75,0,0,1,1.75-1.75h11a1.75,1.75,0,0,1,1.75,1.75v7.008h.812a16.355,16.355,0,0,1,15.2,10.226l6.356,15.613a1.75,1.75,0,1,1-3.241,1.32L95.229,61.075a12.87,12.87,0,0,0-11.964-8.046H80.7a1.75,1.75,0,0,1-1.75-1.75V44.271h-7.5v7.008a1.75,1.75,0,0,1-1.75,1.75H58.3a1.75,1.75,0,0,1-1.75-1.75V44.271h-7.5v7.008a1.75,1.75,0,0,1-1.75,1.75H44.735a12.87,12.87,0,0,0-11.964,8.046L18.049,97.239a12.864,12.864,0,0,0-.953,4.869v13.449a4.255,4.255,0,0,0,4.25,4.25h85.308a4.255,4.255,0,0,0,4.25-4.25V102.108a12.864,12.864,0,0,0-.953-4.869l-5.2-12.762A1.75,1.75,0,1,1,108,83.156Zm-10.755-5.864a1.75,1.75,0,0,0-.961,2.281l2.918,7.166a1.75,1.75,0,1,0,3.241-1.32l-2.918-7.166A1.75,1.75,0,0,0,102.437,90.055ZM44.886,71.267a1.75,1.75,0,0,0-2.432.458,26.075,26.075,0,1,0,6.3-6.467A1.75,1.75,0,1,0,50.805,68.1a22.569,22.569,0,1,1-5.461,5.6A1.75,1.75,0,0,0,44.886,71.267Zm24.531,4.762V81h4.972a1.75,1.75,0,0,1,1.75,1.75v7.334a1.75,1.75,0,0,1-1.75,1.75H69.417v4.972a1.751,1.751,0,0,1-1.75,1.75H60.333a1.751,1.751,0,0,1-1.75-1.75V91.835H53.611a1.75,1.75,0,0,1-1.75-1.75V82.751A1.75,1.75,0,0,1,53.611,81h4.972V76.029a1.751,1.751,0,0,1,1.75-1.75h7.334A1.751,1.751,0,0,1,69.417,76.029ZM67.667,84.5a1.749,1.749,0,0,1-1.75-1.75V77.779H62.083v4.972a1.749,1.749,0,0,1-1.75,1.75H55.361v3.834h4.972a1.749,1.749,0,0,1,1.75,1.75v4.972h3.834V90.085a1.749,1.749,0,0,1,1.75-1.75h4.972V84.5ZM81.575,8.351q1.765.243,3.507.534a1.9,1.9,0,0,0,.289.023,1.75,1.75,0,0,0,.286-3.476q-1.792-.3-3.606-.548a1.75,1.75,0,1,0-.476,3.467Zm31.853,4.424A195.475,195.475,0,0,0,91.981,6.648a1.75,1.75,0,0,0-.742,3.42,192.352,192.352,0,0,1,21.067,6.023c5.569,1.882,8.845,8.955,6.875,14.839l-3.1,9.24A4.264,4.264,0,0,1,111.265,43L98.336,40.55a4.242,4.242,0,0,1-3.46-4.241l.039-2.529a7.06,7.06,0,0,0-4.825-6.8,134.8,134.8,0,0,0-13.554-3.777,57.264,57.264,0,0,0-25.072,0,134.741,134.741,0,0,0-13.559,3.779,7.056,7.056,0,0,0-4.82,6.789l.039,2.536a4.242,4.242,0,0,1-3.459,4.24L16.735,43a4.263,4.263,0,0,1-4.819-2.825l-3.1-9.24c-1.97-5.884,1.306-12.957,6.876-14.84C31.471,10.744,45.724,7.184,64,7.184c3.963,0,7.7.157,11.429.479a1.75,1.75,0,1,0,.3-3.486C71.9,3.845,68.065,3.684,64,3.684c-18.755,0-33.324,3.634-49.427,9.09C7.144,15.286,2.9,24.289,5.5,32.041l3.1,9.24a7.764,7.764,0,0,0,8.789,5.154l12.929-2.446a7.735,7.735,0,0,0,6.309-7.733l-.04-2.54A3.567,3.567,0,0,1,39.035,30.3a131.5,131.5,0,0,1,13.2-3.678,53.776,53.776,0,0,1,23.53,0A131.469,131.469,0,0,1,88.959,30.3a3.569,3.569,0,0,1,2.456,3.426l-.039,2.533a7.736,7.736,0,0,0,6.309,7.734l12.929,2.446a7.784,7.784,0,0,0,8.789-5.154l3.1-9.24C125.1,24.289,120.856,15.286,113.428,12.775Z" fill="url(#a)"/></svg>
